<svg width="18" height="22" viewBox="0 0 18 22" fill="none" xmlns="http://www.w3.org/2000/svg">
<path d="M2.36364 21.3332C1.78031 21.3332 1.28112 21.1257 0.866068 20.7106C0.451017 20.2956 0.243139 19.796 0.242432 19.212V6.48473C0.242432 5.9014 0.45031 5.40221 0.866068 4.98715C1.28183 4.5721 1.78102 4.36423 2.36364 4.36352H4.48486C4.48486 3.19685 4.90026 2.19811 5.73107 1.36731C6.56188 0.536498 7.56061 0.121094 8.72728 0.121094C9.89395 0.121094 10.8927 0.536498 11.7235 1.36731C12.5543 2.19811 12.9697 3.19685 12.9697 4.36352H15.0909C15.6743 4.36352 16.1738 4.5714 16.5896 4.98715C17.0053 5.40291 17.2128 5.9021 17.2121 6.48473V19.212C17.2121 19.7953 17.0046 20.2949 16.5896 20.7106C16.1745 21.1264 15.675 21.3339 15.0909 21.3332H2.36364ZM2.36364 19.212H15.0909V6.48473H12.9697V8.60594C12.9697 8.90645 12.8679 9.15852 12.6643 9.36216C12.4606 9.56579 12.2089 9.66726 11.9091 9.66655C11.6086 9.66655 11.3569 9.56473 11.1539 9.3611C10.951 9.15746 10.8492 8.90574 10.8485 8.60594V6.48473H6.60607V8.60594C6.60607 8.90645 6.50425 9.15852 6.30061 9.36216C6.09698 9.56579 5.84526 9.66726 5.54546 9.66655C5.24496 9.66655 4.99324 9.56473 4.79031 9.3611C4.58738 9.15746 4.48556 8.90574 4.48486 8.60594V6.48473H2.36364V19.212ZM6.60607 4.36352H10.8485C10.8485 3.78019 10.641 3.28099 10.2259 2.86594C9.81087 2.45089 9.31132 2.24301 8.72728 2.24231C8.14395 2.24231 7.64476 2.45018 7.2297 2.86594C6.81465 3.2817 6.60678 3.78089 6.60607 4.36352Z" fill="white"/>
</svg>
