<svg width="50" height="50" viewBox="0 0 50 50" fill="none" xmlns="http://www.w3.org/2000/svg">
<g clip-path="url(#clip0_1_393)">
<path d="M25 0C20.4437 0 16.25 1.11042 12.4167 3.33333C8.63692 5.50199 5.50199 8.63692 3.33333 12.4167C1.11042 16.25 0 20.4437 0 25C0 29.5562 1.11042 33.75 3.33333 37.5833C5.50199 41.3631 8.63692 44.498 12.4167 46.6667C16.25 48.8896 20.4437 50 25 50C29.5562 50 33.75 48.8896 37.5833 46.6667C41.3631 44.498 44.498 41.3631 46.6667 37.5833C48.8896 33.75 50 29.5562 50 25C50 20.4437 48.8896 16.25 46.6667 12.4167C44.498 8.63692 41.3631 5.50199 37.5833 3.33333C33.75 1.11042 29.5562 0 25 0ZM31.5 25H27.3333V40H21.6667V25H18V19.8333H21.6667V16.6667C21.6667 14.3333 22.0562 12.6667 22.8333 11.6667C23.7229 10.4437 25.3333 9.83333 27.6667 9.83333H31.8333V15H29.3333C28.4437 15 27.8896 15.1396 27.6667 15.4167C27.4437 15.6937 27.3333 16.2229 27.3333 17V19.5H31.8333L31.5 25Z" fill="white"/>
</g>
<defs>
<clipPath id="clip0_1_393">
<rect width="50" height="50" fill="white"/>
</clipPath>
</defs>
</svg>
