<svg width="50" height="50" viewBox="0 0 50 50" fill="none" xmlns="http://www.w3.org/2000/svg">
<g clip-path="url(#clip0_1_389)">
<path d="M33.3333 26C33.1206 27.0861 32.7262 28.1285 32.1667 29.0833C31.6129 30.0254 30.8763 30.8471 30 31.5C28.841 32.3666 27.4461 32.8606 26 32.9167C24.5717 32.9762 23.1558 32.6294 21.9167 31.9167C20.6533 31.2097 19.6358 30.134 19 28.8333C18 26.8333 17.7771 24.7229 18.3333 22.5H16L16.1667 34C16.1667 34.2229 16.25 34.4437 16.4167 34.6667C16.5833 34.8896 16.7771 35 17 35H34.3333C34.5562 35 34.7771 34.8896 35 34.6667C35.2229 34.4437 35.3333 34.2229 35.3333 34V22.5H33C33.3333 23.6104 33.4437 24.7771 33.3333 26ZM25.6667 30.1667C27 30.1667 28.1667 29.6667 29.1667 28.6667C30.1667 27.6667 30.6667 26.4729 30.6667 25.0833C30.6785 23.7253 30.1718 22.4139 29.25 21.4167C28.3062 20.3604 27.1396 19.8333 25.75 19.8333C24.3604 19.8333 23.1667 20.3333 22.1667 21.3333C21.1667 22.3333 20.6667 23.5271 20.6667 24.9167C20.6667 26.3062 21.1396 27.5271 22.0833 28.5833C23.0271 29.6396 24.1667 30.1667 25.5 30.1667H25.6667ZM34.3333 14.3333H32C31.7771 14.3333 31.5562 14.4437 31.3333 14.6667C31.1104 14.8896 31 15.1104 31 15.3333V18.1667C31.2229 18.6104 31.5562 18.8333 32 18.8333H34.3333C34.6667 18.8333 34.9167 18.7229 35.0833 18.5C35.2377 18.3113 35.3256 18.077 35.3333 17.8333V15.3333C35.3333 15.1104 35.2229 14.8896 35 14.6667C34.7771 14.4437 34.5562 14.3333 34.3333 14.3333ZM25 0C20.4437 0 16.25 1.11042 12.4167 3.33333C8.63692 5.50199 5.50199 8.63692 3.33333 12.4167C1.11042 16.25 0 20.4437 0 25C0 29.5562 1.11042 33.75 3.33333 37.5833C5.50199 41.3631 8.63692 44.498 12.4167 46.6667C16.25 48.8896 20.4437 50 25 50C29.5562 50 33.75 48.8896 37.5833 46.6667C41.3631 44.498 44.498 41.3631 46.6667 37.5833C48.8896 33.75 50 29.5562 50 25C50 20.4437 48.8896 16.25 46.6667 12.4167C44.498 8.63692 41.3631 5.50199 37.5833 3.33333C33.75 1.11042 29.5562 0 25 0ZM38 35.1667L37.8333 35.3333V35.5C37.838 35.7635 37.7887 36.0251 37.6883 36.2687C37.588 36.5124 37.4388 36.7329 37.25 36.9167C36.8643 37.3039 36.3704 37.5653 35.8333 37.6667H15.6667C15.3957 37.6684 15.1279 37.6093 14.8827 37.494C14.6376 37.3786 14.4214 37.2098 14.25 37C13.8711 36.5756 13.6122 36.0578 13.5 35.5L13.3333 35.1667L13.5 14.6667C13.5 14.1104 13.6938 13.6104 14.0833 13.1667C14.4729 12.7229 14.9437 12.4437 15.5 12.3333H35.6667C36.2037 12.4347 36.6976 12.6961 37.0833 13.0833C37.4706 13.4691 37.732 13.9629 37.8333 14.5L38 35.1667Z" fill="white"/>
</g>
<defs>
<clipPath id="clip0_1_389">
<rect width="50" height="50" fill="white"/>
</clipPath>
</defs>
</svg>
