<svg width="30" height="30" viewBox="0 0 30 30" fill="none" xmlns="http://www.w3.org/2000/svg">
<path d="M22.0749 14C21.7874 13.625 21.4374 13.3 21.1124 12.975C20.2749 12.225 19.3249 11.6875 18.5249 10.9C16.6624 9.075 16.2499 6.0625 17.4374 3.75C16.2499 4.0375 15.2124 4.6875 14.3249 5.4C11.0874 8 9.81244 12.5875 11.3374 16.525C11.3874 16.65 11.4374 16.775 11.4374 16.9375C11.4374 17.2125 11.2499 17.4625 10.9999 17.5625C10.7124 17.6875 10.4124 17.6125 10.1749 17.4125C10.104 17.3531 10.0447 17.281 9.99994 17.2C8.58744 15.4125 8.36244 12.85 9.31244 10.8C7.22494 12.5 6.08744 15.375 6.24994 18.0875C6.32494 18.7125 6.39994 19.3375 6.61244 19.9625C6.78744 20.7125 7.12494 21.4625 7.49994 22.125C8.84994 24.2875 11.1874 25.8375 13.6999 26.15C16.3749 26.4875 19.2374 26 21.2874 24.15C23.5749 22.075 24.3749 18.75 23.1999 15.9L23.0374 15.575C22.7749 15 22.0749 14 22.0749 14ZM18.1249 21.875C17.7749 22.175 17.1999 22.5 16.7499 22.625C15.3499 23.125 13.9499 22.425 13.1249 21.6C14.6124 21.25 15.4999 20.15 15.7624 19.0375C15.9749 18.0375 15.5749 17.2125 15.4124 16.25C15.2624 15.325 15.2874 14.5375 15.6249 13.675C15.8624 14.15 16.1124 14.625 16.4124 15C17.3749 16.25 18.8874 16.8 19.2124 18.5C19.2624 18.675 19.2874 18.85 19.2874 19.0375C19.3249 20.0625 18.8749 21.1875 18.1249 21.875Z" fill="black"/>
</svg>
