<svg width="50" height="50" viewBox="0 0 50 50" fill="none" xmlns="http://www.w3.org/2000/svg">
<g clip-path="url(#clip0_1_321)">
<path d="M19.7917 4.16669C21.1141 4.16649 22.387 4.66926 23.3523 5.57302C24.3175 6.47679 24.9029 7.71388 24.9897 9.03336L25.0001 9.37502V18.9688L36.3376 20.2292C38.3032 20.4476 40.1271 21.3581 41.4832 22.7977C42.8392 24.2373 43.639 26.1123 43.7397 28.0875L43.7501 28.5104V29.1667C43.75 33.4967 42.0648 37.6568 39.0512 40.7661C36.0376 43.8753 31.9322 45.6897 27.6042 45.825L27.0834 45.8334H25.6793C22.6844 45.8333 19.7449 45.0263 17.1698 43.4972C14.5948 41.968 12.4793 39.7733 11.0459 37.1438L10.773 36.6209L4.85216 24.7792C4.10216 23.2792 4.65841 21.2729 6.40841 20.5542C8.58133 19.6646 10.6459 19.4979 12.773 20.5792C13.2355 20.8146 13.6897 21.1042 14.1355 21.4417L14.5834 21.7959V9.37502C14.5834 7.99369 15.1321 6.66893 16.1089 5.69218C17.0857 4.71542 18.4104 4.16669 19.7917 4.16669ZM19.7917 8.33336C19.5479 8.33328 19.3118 8.41871 19.1245 8.57479C18.9372 8.73087 18.8106 8.9477 18.7668 9.18752L18.7501 9.37502V27.0834C18.7497 27.5147 18.6156 27.9352 18.366 28.287C18.1165 28.6388 17.7639 28.9045 17.3569 29.0474C16.95 29.1903 16.5087 29.2034 16.094 29.0848C15.6793 28.9662 15.3117 28.7219 15.0417 28.3854L14.3501 27.5375L13.7188 26.8C12.5105 25.4313 11.6334 24.675 10.8855 24.2938C10.4435 24.0545 9.93939 23.955 9.43967 24.0084L9.14592 24.05L14.5001 34.7584C15.4999 36.7573 17.0174 38.4516 18.8946 39.6648C20.7717 40.878 22.9398 41.5657 25.173 41.6563L25.6793 41.6667H27.0834C30.3175 41.6668 33.4258 40.4134 35.7552 38.1699C38.0846 35.9263 39.4538 32.8673 39.5751 29.6354L39.5834 29.1667V28.5104C39.5835 27.5423 39.2465 26.6043 38.6302 25.8577C38.014 25.111 37.1569 24.6022 36.2063 24.4188L35.8772 24.3688L24.5397 23.1104C23.5771 23.0036 22.6818 22.5647 22.0077 21.8693C21.3336 21.174 20.9228 20.2655 20.8459 19.3L20.8334 18.9688V9.37502C20.8334 9.09876 20.7237 8.8338 20.5283 8.63845C20.333 8.4431 20.068 8.33336 19.7917 8.33336ZM8.33342 12.5C8.88595 12.5 9.41585 12.7195 9.80655 13.1102C10.1973 13.5009 10.4167 14.0308 10.4167 14.5834C10.4167 15.1359 10.1973 15.6658 9.80655 16.0565C9.41585 16.4472 8.88595 16.6667 8.33342 16.6667H6.25008C5.69755 16.6667 5.16764 16.4472 4.77694 16.0565C4.38624 15.6658 4.16675 15.1359 4.16675 14.5834C4.16675 14.0308 4.38624 13.5009 4.77694 13.1102C5.16764 12.7195 5.69755 12.5 6.25008 12.5H8.33342ZM33.3334 10.4167C33.8644 10.4173 34.3751 10.6206 34.7613 10.9851C35.1474 11.3496 35.3797 11.8478 35.4109 12.3779C35.442 12.908 35.2695 13.43 34.9287 13.8372C34.5879 14.2444 34.1045 14.5061 33.5772 14.5688L33.3334 14.5834H31.2501C30.7191 14.5828 30.2083 14.3794 29.8222 14.0149C29.4361 13.6504 29.2038 13.1522 29.1726 12.6221C29.1415 12.092 29.314 11.5701 29.6548 11.1629C29.9956 10.7557 30.4791 10.494 31.0063 10.4313L31.2501 10.4167H33.3334ZM9.80633 2.69377L11.8897 4.77711C12.2692 5.17003 12.4791 5.69628 12.4744 6.24253C12.4697 6.78877 12.2506 7.3113 11.8643 7.69756C11.478 8.08383 10.9555 8.30293 10.4093 8.30768C9.86301 8.31242 9.33675 8.10244 8.94383 7.72294L6.8605 5.63961C6.481 5.24669 6.27101 4.72043 6.27576 4.17419C6.28051 3.62794 6.49961 3.10542 6.88588 2.71915C7.27214 2.33288 7.79467 2.11378 8.34091 2.10904C8.88716 2.10429 9.41341 2.31428 9.80633 2.69377ZM32.723 2.69377C33.1136 3.08446 33.333 3.61426 33.333 4.16669C33.333 4.71912 33.1136 5.24892 32.723 5.63961L30.6397 7.72294C30.4475 7.92192 30.2176 8.08063 29.9634 8.18982C29.7093 8.299 29.4359 8.35647 29.1593 8.35888C28.8826 8.36128 28.6083 8.30857 28.3523 8.20382C28.0962 8.09907 27.8636 7.94437 27.668 7.74876C27.4724 7.55315 27.3177 7.32054 27.213 7.06451C27.1082 6.80848 27.0555 6.53414 27.0579 6.25752C27.0603 5.9809 27.1178 5.70752 27.227 5.45335C27.3361 5.19917 27.4949 4.96929 27.6938 4.77711L29.7772 2.69377C30.1679 2.30321 30.6977 2.0838 31.2501 2.0838C31.8025 2.0838 32.3323 2.30321 32.723 2.69377Z" fill="white"/>
</g>
<defs>
<clipPath id="clip0_1_321">
<rect width="50" height="50" fill="white"/>
</clipPath>
</defs>
</svg>
