<svg width="50" height="50" viewBox="0 0 50 50" fill="none" xmlns="http://www.w3.org/2000/svg">
<path d="M27.6847 34.8007C29.1675 34.8007 30.3694 33.5987 30.3694 32.116C30.3694 30.6333 29.1675 29.4313 27.6847 29.4313C26.202 29.4313 25 30.6333 25 32.116C25 33.5987 26.202 34.8007 27.6847 34.8007Z" fill="white" fill-opacity="0.01"/>
<path d="M21.6735 9.68262C22.1388 7.42567 24.4811 5.05762 26.4346 5.05762C27.5804 5.05762 28.0693 5.51387 28.0693 6.45137C28.0693 11.3423 28.7145 13.018 30.4548 16.95L33.6541 23.2944L21.6263 12.0736L21.6735 9.68262ZM23.4318 22.2833C22.8951 21.752 22.1699 21.4548 21.4147 21.4567C20.6595 21.4587 19.9358 21.7595 19.4018 22.2935C18.8678 22.8275 18.5669 23.5512 18.565 24.3064C18.5631 25.0616 18.8603 25.7869 19.3916 26.3236L20.4311 27.3236C19.8945 26.7922 19.1693 26.4949 18.4141 26.4967C17.6589 26.4984 16.9352 26.7992 16.4011 27.3331C15.867 27.867 15.566 28.5907 15.5639 29.3459C15.5619 30.1011 15.859 30.8264 16.3902 31.3632L17.4006 32.3736C16.8639 31.8423 16.1386 31.5451 15.3834 31.547C14.6282 31.5489 13.9045 31.8498 13.3705 32.3838C12.8365 32.9178 12.5357 33.6415 12.5337 34.3967C12.5318 35.1519 12.829 35.8772 13.3603 36.4139L18.0798 41.1194C22.5429 45.5819 29.7784 45.5819 34.2409 41.1194C38.7034 36.6569 38.6728 29.4521 34.2103 24.9889L30.0561 20.8347L17.2992 8.07776C16.7618 7.55309 16.0393 7.26139 15.2882 7.26589C14.5372 7.27039 13.8182 7.57074 13.2871 8.10181C12.7561 8.63288 12.4557 9.35187 12.4512 10.1029C12.4467 10.8539 12.7384 11.5765 13.2631 12.1139L23.4318 22.2833Z" fill="white" fill-opacity="0.01"/>
<path d="M22.361 9.47637C22.361 6.91526 24.4811 5.05762 26.4346 5.05762C27.5804 5.05762 28.0693 5.51317 28.0693 6.45067C28.0693 11.2271 28.2089 13.4653 29.836 17.2285M23.4318 22.2833C22.8951 21.752 22.1699 21.4548 21.4147 21.4567C20.6595 21.4587 19.9358 21.7595 19.4018 22.2935C18.8678 22.8275 18.5669 23.5512 18.565 24.3064C18.5631 25.0616 18.8603 25.7869 19.3916 26.3236L20.4311 27.3236C19.8945 26.7922 19.1693 26.4949 18.4141 26.4967C17.6589 26.4984 16.9352 26.7992 16.4011 27.3331C15.867 27.867 15.566 28.5907 15.5639 29.3459C15.5619 30.1011 15.859 30.8264 16.3902 31.3632L17.4006 32.3736C16.8639 31.8423 16.1386 31.5451 15.3834 31.547C14.6282 31.5489 13.9045 31.8498 13.3705 32.3838C12.8365 32.9178 12.5357 33.6415 12.5337 34.3967C12.5318 35.1519 12.829 35.8772 13.3603 36.4139L18.0798 41.1194C22.5429 45.5819 29.7784 45.5819 34.2409 41.1194C38.7034 36.6569 38.6728 29.4521 34.2103 24.9889L30.0561 20.8347L17.2992 8.07776C16.7618 7.55309 16.0393 7.26139 15.2882 7.26589C14.5372 7.27039 13.8182 7.57074 13.2871 8.10181C12.7561 8.63288 12.4557 9.35187 12.4512 10.1029C12.4467 10.8539 12.7384 11.5765 13.2631 12.1139L23.4318 22.2833Z" stroke="black" stroke-width="2" stroke-linecap="round" stroke-linejoin="round"/>
</svg>
