<svg width="50" height="50" viewBox="0 0 50 50" fill="none" xmlns="http://www.w3.org/2000/svg">
<path d="M32.0312 14.8535C32.0312 15.1625 31.9395 15.4646 31.7678 15.7215C31.5961 15.9785 31.3521 16.1788 31.0666 16.297C30.7811 16.4153 30.4669 16.4462 30.1638 16.3859C29.8607 16.3257 29.5823 16.1768 29.3638 15.9583C29.1453 15.7398 28.9965 15.4614 28.9362 15.1583C28.8759 14.8552 28.9068 14.541 29.0251 14.2555C29.1434 13.97 29.3436 13.726 29.6006 13.5543C29.8575 13.3826 30.1596 13.291 30.4687 13.291C30.8831 13.291 31.2805 13.4556 31.5735 13.7486C31.8665 14.0416 32.0312 14.4391 32.0312 14.8535ZM41.6464 27.6816C37.9355 34.3515 30.9511 37.9062 20.8593 38.2539L16.3671 48.746C16.3064 48.8871 16.2055 49.0072 16.077 49.0913C15.9485 49.1754 15.798 49.2197 15.6444 49.2187H15.5937C15.4328 49.2084 15.2791 49.1487 15.1536 49.0476C15.0281 48.9466 14.9369 48.8092 14.8925 48.6542L11.8827 38.1191L1.34757 35.1035C1.19269 35.0589 1.05539 34.9675 0.954499 34.8418C0.853603 34.7161 0.794046 34.5623 0.783993 34.4014C0.773939 34.2406 0.813881 34.0806 0.898342 33.9433C0.982804 33.806 1.10765 33.6982 1.25577 33.6347L11.748 29.1425C12.1093 19.0624 15.6562 12.0722 22.3241 8.36909C31.2109 3.43354 42.5937 6.22065 43.1757 6.55854C43.2897 6.62657 43.385 6.72188 43.453 6.83588C43.623 7.12495 44.3749 10.1445 44.5116 14.0527C44.6366 17.6894 44.2421 23.0058 41.6464 27.6816ZM33.7441 33.496C31.5264 33.1581 29.5033 32.0362 28.0423 30.334C26.5812 28.6317 25.7789 26.462 25.7812 24.2187C23.5412 24.2179 21.3753 23.416 19.6749 21.9578C17.9746 20.4996 16.8519 18.4812 16.5097 16.2675C14.5038 19.7832 13.4257 24.2656 13.2948 29.6874C13.2913 29.837 13.2448 29.9824 13.1611 30.1064C13.0773 30.2303 12.9596 30.3276 12.8222 30.3867L3.89054 34.207L12.7304 36.746C12.8576 36.7826 12.9735 36.8509 13.0671 36.9445C13.1607 37.0381 13.229 37.154 13.2655 37.2812L15.7909 46.1191L19.6191 37.1894C19.6778 37.0516 19.775 36.9335 19.899 36.8494C20.0229 36.7652 20.1685 36.7185 20.3183 36.7148C25.7441 36.5781 30.2304 35.5019 33.7441 33.496ZM42.9687 15.0878C42.9613 12.6562 42.6862 10.2327 42.1483 7.86128C39.7769 7.32326 37.3535 7.04817 34.9218 7.04096C31.248 7.01752 25.9511 7.6269 21.6015 10.6523C20.2451 11.5944 19.0366 12.7332 18.0155 14.0312C17.8946 15.1823 18.0309 16.346 18.4146 17.438C18.7984 18.53 19.42 19.5231 20.2345 20.3455C21.0491 21.1679 22.0362 21.799 23.1244 22.1932C24.2127 22.5874 25.375 22.7349 26.5273 22.6249C26.6418 22.6141 26.7573 22.6286 26.8656 22.6676C26.9738 22.7065 27.0721 22.7689 27.1535 22.8503C27.2348 22.9316 27.2972 23.0299 27.3362 23.1382C27.3751 23.2465 27.3897 23.362 27.3788 23.4765C27.2692 24.6295 27.4174 25.7925 27.8125 26.8812C28.2077 27.97 28.84 28.9572 29.6636 29.7715C30.4872 30.5858 31.4817 31.2068 32.5748 31.5895C33.668 31.9722 34.8326 32.1071 35.9843 31.9843C37.2789 30.9643 38.415 29.7578 39.3554 28.4042C41.0155 26.0078 43.0038 21.748 42.9687 15.0878Z" fill="black"/>
</svg>
