<svg width="35" height="35" viewBox="0 0 35 35" fill="none" xmlns="http://www.w3.org/2000/svg">
<path d="M22.0403 2.26169C22.087 2.08173 22.2031 1.92762 22.3633 1.83307C22.5234 1.73852 22.7144 1.71124 22.8946 1.75719C25.3839 2.40555 27.6551 3.70639 29.4739 5.52548C31.2926 7.34456 32.5931 9.61601 33.241 12.1054C33.2888 12.2854 33.2633 12.4769 33.17 12.6381C33.0768 12.7992 32.9234 12.9168 32.7436 12.965C32.6864 12.9812 32.6272 12.9895 32.5678 12.9896C32.4123 12.9891 32.2614 12.9371 32.1386 12.8417C32.0158 12.7462 31.9281 12.6128 31.8893 12.4623C31.3027 10.2143 30.1275 8.16329 28.4848 6.52051C26.842 4.87772 24.791 3.70254 22.543 3.11598C22.3634 3.06884 22.2097 2.95255 22.1155 2.79249C22.0213 2.63243 21.9942 2.44161 22.0403 2.26169ZM21.1367 8.74098C23.7735 9.44938 25.5506 11.2265 26.259 13.8632C26.2979 14.0138 26.3856 14.1472 26.5083 14.2426C26.6311 14.3381 26.782 14.3901 26.9375 14.3906C26.997 14.3905 27.0561 14.3822 27.1133 14.366C27.2931 14.3178 27.4465 14.2002 27.5397 14.039C27.633 13.8779 27.6585 13.6864 27.6108 13.5064C26.767 10.3424 24.6488 8.23297 21.4883 7.38219C21.3126 7.34823 21.1306 7.3825 20.9794 7.47804C20.8281 7.57358 20.7189 7.7232 20.6741 7.89641C20.6293 8.06962 20.6522 8.25341 20.7381 8.41032C20.8241 8.56724 20.9666 8.68549 21.1367 8.74098ZM34.6613 26.0941C34.3696 28.3071 33.2819 30.3381 31.6016 31.8075C29.9213 33.2768 27.7634 34.084 25.5313 34.0781C11.961 34.0781 0.921895 23.039 0.921895 9.46872C0.91727 7.23749 1.72502 5.08088 3.19427 3.40169C4.66352 1.7225 6.69379 0.635568 8.90588 0.343912C9.35906 0.288816 9.81789 0.38223 10.2135 0.610125C10.609 0.83802 10.92 1.18809 11.0996 1.60778L14.8086 9.89411C14.9473 10.2154 15.0038 10.5662 14.9731 10.9148C14.9424 11.2634 14.8255 11.5988 14.6328 11.891C14.617 11.9138 14.6012 11.9367 14.5836 11.9578L10.857 16.3892C10.7986 16.4863 10.7651 16.5964 10.7596 16.7096C10.754 16.8228 10.7767 16.9355 10.8254 17.0379C12.2035 19.8591 15.1584 22.7912 18.0131 24.1693C18.1162 24.2171 18.2295 24.2388 18.3429 24.2323C18.4564 24.2259 18.5665 24.1916 18.6635 24.1324L23.0352 20.4199L23.102 20.3689C23.3945 20.1757 23.7306 20.0584 24.0799 20.0277C24.4292 19.997 24.7806 20.0539 25.1024 20.1931L33.4028 23.9127C33.8183 24.0934 34.1645 24.4032 34.3902 24.7961C34.616 25.189 34.7092 25.6441 34.6561 26.0941H34.6613ZM32.842 25.1941L24.5381 21.4746C24.4372 21.4322 24.3277 21.4144 24.2186 21.4227C24.1095 21.4309 24.0039 21.465 23.9106 21.522L19.5547 25.2345L19.4897 25.2838C19.1868 25.486 18.8368 25.6063 18.4736 25.6331C18.1104 25.6599 17.7465 25.5923 17.4172 25.4367C14.2531 23.9091 11.1049 20.782 9.57736 17.6549C9.42026 17.3281 9.35002 16.9664 9.37342 16.6046C9.39682 16.2428 9.51307 15.8932 9.71096 15.5894C9.72678 15.5648 9.74436 15.5437 9.76193 15.5209L13.4867 11.0912C13.5426 10.9962 13.5753 10.8895 13.5823 10.7796C13.5894 10.6697 13.5705 10.5596 13.5272 10.4584L9.81115 2.17204C9.75879 2.04358 9.6696 1.93348 9.55481 1.8556C9.44002 1.77771 9.30475 1.73552 9.16604 1.73434C9.13794 1.73265 9.10976 1.73265 9.08166 1.73434C7.20828 1.98257 5.48944 2.90461 4.24649 4.32807C3.00355 5.75154 2.3216 7.57897 2.32814 9.46872C2.32814 22.2621 12.7379 32.6718 25.5313 32.6718C27.421 32.6784 29.2484 31.9964 30.6719 30.7535C32.0954 29.5105 33.0174 27.7917 33.2656 25.9183C33.2818 25.7675 33.2488 25.6155 33.1715 25.4849C33.0942 25.3544 32.9768 25.2524 32.8367 25.1941H32.842Z" fill="white"/>
</svg>
