<svg width="32" height="37" viewBox="0 0 32 37" fill="none" xmlns="http://www.w3.org/2000/svg">
<path d="M19.0833 36.2292L18.9624 31.5H15.9583C11.6152 31.5 7.92561 29.9819 4.8895 26.9458C1.85339 23.9097 0.334642 20.2194 0.333253 15.875C0.331864 11.5306 1.85061 7.84097 4.8895 4.80625C7.92839 1.77153 11.618 0.252778 15.9583 0.25C18.1305 0.25 20.1638 0.656944 22.0583 1.47083C23.9527 2.28333 25.6076 3.39722 27.0228 4.8125C28.4381 6.22778 29.552 7.88194 30.3645 9.775C31.177 11.6708 31.5833 13.7042 31.5833 15.875C31.5833 17.9986 31.2714 20.0382 30.6478 21.9937C30.0242 23.9493 29.1617 25.7972 28.0603 27.5375C26.9589 29.2778 25.6395 30.8819 24.102 32.35C22.5645 33.8181 20.8916 35.1104 19.0833 36.2271M21.1666 32.2292C23.6319 30.1458 25.6374 27.7069 27.1833 24.9125C28.7291 22.1181 29.5013 19.1056 29.4999 15.875C29.4999 12.0903 28.1888 8.8875 25.5666 6.26667C22.9444 3.64583 19.7416 2.33472 15.9583 2.33333C12.1749 2.33194 8.97214 3.64306 6.34992 6.26667C3.7277 8.89028 2.41659 12.0931 2.41659 15.875C2.41659 19.6569 3.7277 22.8604 6.34992 25.4854C8.97214 28.1104 12.1749 29.4208 15.9583 29.4167H21.1666V32.2292ZM16.027 26.4396C16.4576 26.4396 16.8208 26.2917 17.1166 25.9958C17.4124 25.7 17.5603 25.3368 17.5603 24.9062C17.5603 24.4757 17.4124 24.1125 17.1166 23.8167C16.8208 23.5208 16.4576 23.3722 16.027 23.3708C15.5964 23.3708 15.2333 23.5194 14.9374 23.8167C14.6402 24.1125 14.4916 24.4757 14.4916 24.9062C14.4916 25.3368 14.6395 25.7 14.9353 25.9958C15.2326 26.2917 15.5964 26.4396 16.027 26.4396ZM15.1166 20.3458H16.9603C17.0131 19.4917 17.177 18.816 17.452 18.3188C17.727 17.8229 18.3798 17.059 19.4103 16.0271C20.0103 15.4299 20.4853 14.8194 20.8353 14.1958C21.1839 13.5736 21.3583 12.8597 21.3583 12.0542C21.3583 10.55 20.8395 9.36875 19.802 8.51042C18.7645 7.65208 17.5096 7.22222 16.0374 7.22083C14.7499 7.22083 13.6596 7.57292 12.7666 8.27708C11.8708 8.98125 11.2145 9.82083 10.7978 10.7958L12.5124 11.4604C12.793 10.8437 13.2027 10.2819 13.7416 9.775C14.2819 9.26944 15.0471 9.01667 16.0374 9.01667C17.2152 9.01667 18.0853 9.33681 18.6478 9.97708C19.2103 10.6187 19.4916 11.3187 19.4916 12.0771C19.4916 12.7743 19.311 13.3639 18.9499 13.8458C18.5902 14.3278 18.127 14.8521 17.5603 15.4187C16.5589 16.3007 15.9013 17.0924 15.5874 17.7937C15.2735 18.4951 15.1166 19.3458 15.1166 20.3458Z" fill="white"/>
</svg>
