<svg width="50" height="50" viewBox="0 0 50 50" fill="none" xmlns="http://www.w3.org/2000/svg">
<path d="M28.3751 17.4625L32.4709 13.3646C31.9863 12.8802 31.6287 12.2837 31.4297 11.6281C31.2307 10.9724 31.1964 10.2778 31.33 9.60577C31.4635 8.93372 31.7608 8.30498 32.1953 7.77523C32.6299 7.24549 33.1884 6.83109 33.8214 6.56874C34.4544 6.30639 35.1423 6.20419 35.8242 6.27119C36.5061 6.33819 37.1609 6.57232 37.7307 6.95285C38.3006 7.33337 38.7677 7.84855 39.0909 8.45274C39.4141 9.05694 39.5832 9.73151 39.5834 10.4167C40.2688 10.4162 40.9437 10.5848 41.5483 10.9075C42.1529 11.2302 42.6686 11.6971 43.0497 12.2668C43.4307 12.8364 43.6654 13.4913 43.7328 14.1733C43.8003 14.8554 43.6984 15.5435 43.4363 16.1768C43.1742 16.8101 42.76 17.3689 42.2303 17.8038C41.7005 18.2387 41.0717 18.5362 40.3995 18.6699C39.7273 18.8037 39.0325 18.7695 38.3767 18.5706C37.7209 18.3716 37.1242 18.0139 36.6397 17.5292L32.848 21.3229M15.6251 33.3334L17.7084 35.4167M12.3001 38.7417C17.9938 44.4375 24.5917 47.075 27.0292 44.6354C29.4709 42.1938 26.8334 35.5979 21.1376 29.9042C15.4438 24.2084 8.84592 21.5709 6.40842 24.0104C3.96675 26.4521 6.60425 33.0479 12.3001 38.7417Z" stroke="black" stroke-width="2" stroke-linecap="round" stroke-linejoin="round"/>
<path d="M27.0314 44.6355C35.1668 36.498 37.1459 25.2855 31.4501 19.5917C25.7564 13.8959 14.5439 15.8751 6.40845 24.0105" stroke="black" stroke-width="2" stroke-linecap="round" stroke-linejoin="round"/>
</svg>
