<svg width="50" height="50" viewBox="0 0 50 50" fill="none" xmlns="http://www.w3.org/2000/svg">
<g clip-path="url(#clip0_1_391)">
<path d="M23.5 36.6667C23.4074 36.867 23.2637 37.0394 23.0833 37.1667C22.9371 37.2711 22.7629 37.3292 22.5833 37.3333C22.4167 37.3333 22.3062 37.2771 22.25 37.1667C22.1857 37.0082 22.1573 36.8374 22.1667 36.6667V30.5H20.6667V37.3333C20.6503 37.7104 20.7367 38.0849 20.9167 38.4167C21.0833 38.6937 21.3333 38.8333 21.6667 38.8333C22 38.8333 22.3062 38.7229 22.5833 38.5C22.8604 38.2771 23.1667 38 23.5 37.6667V38.6667H25V30.5H23.5V36.6667ZM14.5 29.1667V27.5H20V29.1667H18.1667V38.6667H16.3333V29.1667H14.5ZM24.8333 19.3333C24.6104 19.3333 24.4167 19.25 24.25 19.0833C24.1707 19.0083 24.1077 18.9178 24.0647 18.8175C24.0217 18.7172 23.9997 18.6091 24 18.5V13.5C24 13.3896 24.0562 13.2771 24.1667 13.1667C24.2771 13.0562 24.4729 13 24.75 13C25.0271 13 25.25 13.0562 25.4167 13.1667C25.4983 13.221 25.5643 13.2957 25.6082 13.3834C25.652 13.4711 25.6722 13.5688 25.6667 13.6667V18.5C25.6667 18.7229 25.5833 18.9167 25.4167 19.0833C25.3416 19.1626 25.2512 19.2257 25.1509 19.2687C25.0505 19.3116 24.9425 19.3337 24.8333 19.3333ZM29 36.6667C29 35.3333 29.0562 33.9437 29.1667 32.5C29.1667 32.2771 29.0833 32.0833 28.9167 31.9167C28.75 31.75 28.5833 31.6667 28.4167 31.6667H28.1667L27.6667 32V37L28.1667 37.3333L28.5 37.5C28.7229 37.5 28.8604 37.4437 28.9167 37.3333C28.9729 37.2229 29 37 29 36.6667ZM29.1667 30.3333C29.6104 30.3333 29.9729 30.5 30.25 30.8333C30.5271 31.1667 30.6667 31.6667 30.6667 32.3333V37C30.6667 37.5562 30.5562 38 30.3333 38.3333C30.2416 38.4883 30.1045 38.6114 29.9406 38.6859C29.7766 38.7604 29.5937 38.7828 29.4167 38.75C29.0746 38.7064 28.739 38.6224 28.4167 38.5C28.1662 38.4126 27.958 38.2341 27.8333 38V38.6667H26.1667V27.5H27.8333V31.1667C28.0562 30.9437 28.2771 30.75 28.5 30.5833C28.6887 30.4289 28.923 30.3411 29.1667 30.3333ZM37.3333 41C37.8896 40.5562 38.2229 39.1104 38.3333 36.6667C38.4437 35.4437 38.5562 34.2771 38.6667 33.1667C38.6667 32.1667 38.5562 31.0562 38.3333 29.8333C38.1104 27.3896 37.75 25.8896 37.25 25.3333C36.75 24.7771 34.6104 24.3896 30.8333 24.1667L25.3333 24L19.6667 24.1667C15.8896 24.3896 13.75 24.7771 13.25 25.3333C12.75 25.8896 12.3896 27.3896 12.1667 29.8333C12.0557 30.941 12.0001 32.0535 12 33.1667C12 34.2771 12.0562 35.4437 12.1667 36.6667C12.3896 39.1104 12.75 40.5833 13.25 41.0833C13.75 41.5833 15.8896 42 19.6667 42.3333L25.3333 42.5L30.8333 42.3333C34.6104 42 36.7771 41.6104 37.3333 41.1667V41ZM17.5 8.33333H15.5L17.8333 15.8333V20.5H19.8333V15.5L22.1667 8.33333H20.1667L19 13.1667H18.8333L17.5 8.33333ZM22.3333 13.6667V18.3333C22.3333 19.1104 22.5562 19.7229 23 20.1667C23.4437 20.6104 24.0562 20.8333 24.8333 20.8333C25.6104 20.8333 26.2229 20.6104 26.6667 20.1667C27.1104 19.7229 27.3333 19.1104 27.3333 18.3333V13.6667C27.3333 13 27.1104 12.4438 26.6667 12C26.2229 11.5562 25.6104 11.3333 24.8333 11.3333C24.0562 11.3333 23.4437 11.5562 23 12C22.5562 12.4438 22.3333 13 22.3333 13.6667ZM28.8333 11.6667V19.1667C28.817 19.5438 28.9034 19.9182 29.0833 20.25C29.25 20.5271 29.5271 20.6667 29.9167 20.6667C30.3062 20.6667 30.6667 20.5833 31 20.4167C31.3333 20.25 31.6667 20 32 19.6667V20.6667H33.8333V11.6667H32V18.3333C31.8936 18.5509 31.7176 18.7269 31.5 18.8333C31.3208 18.9326 31.1213 18.9896 30.9167 19C30.75 19 30.6396 18.9729 30.5833 18.9167C30.5271 18.8604 30.5 18.7229 30.5 18.5V11.5H28.8333V11.6667ZM25 0C29.5562 0 33.75 1.11042 37.5833 3.33333C41.3631 5.50199 44.498 8.63692 46.6667 12.4167C48.8896 16.25 50 20.4437 50 25C50 29.5562 48.8896 33.75 46.6667 37.5833C44.498 41.3631 41.3631 44.498 37.5833 46.6667C33.75 48.8896 29.5562 50 25 50C20.4437 50 16.25 48.8896 12.4167 46.6667C8.63692 44.498 5.50199 41.3631 3.33333 37.5833C1.11042 33.75 0 29.5562 0 25C0 20.4437 1.11042 16.25 3.33333 12.4167C5.50199 8.63692 8.63692 5.50199 12.4167 3.33333C16.25 1.11042 20.4437 0 25 0ZM34.5 33.5L34.3333 32.6667C34.3333 32.3333 34.2771 32.0833 34.1667 31.9167C34.1123 31.835 34.0376 31.769 33.9499 31.7252C33.8622 31.6813 33.7646 31.6611 33.6667 31.6667C33.5688 31.6611 33.4711 31.6813 33.3834 31.7252C33.2957 31.769 33.221 31.835 33.1667 31.9167C33.0562 32.0833 33 32.3333 33 32.6667V33.5H34.5ZM33.8333 30.3333C34.5 30.3333 35.0271 30.5271 35.4167 30.9167C35.8062 31.3062 36 31.8896 36 32.6667V34.6667H33V36.3333C33 36.6667 33.0562 36.9167 33.1667 37.0833C33.2771 37.25 33.4729 37.3333 33.75 37.3333C34.0271 37.3333 34.2229 37.25 34.3333 37.0833C34.4437 36.9167 34.5 36.6104 34.5 36.1667V35.8333H36V36.3333C36 37.1104 35.8062 37.7229 35.4167 38.1667C35.0271 38.6104 34.4729 38.8333 33.75 38.8333C33.0271 38.8333 32.4729 38.6104 32.0833 38.1667C31.6937 37.7229 31.5 37.1104 31.5 36.3333V32.6667C31.5 32 31.7229 31.4437 32.1667 31C32.6104 30.5562 33.1667 30.3333 33.8333 30.3333Z" fill="white"/>
</g>
<defs>
<clipPath id="clip0_1_391">
<rect width="50" height="50" fill="white"/>
</clipPath>
</defs>
</svg>
